<svg xmlns="http://www.w3.org/2000/svg" viewBox="0 0 192 192" role="img" aria-labelledby="title">
  <title>Jump Rope Energy Icon</title>
  <defs>
    <linearGradient id="grad" x1="0%" y1="0%" x2="100%" y2="100%">
      <stop offset="0%" stop-color="#4A6CF7" />
      <stop offset="100%" stop-color="#A855F7" />
    </linearGradient>
  </defs>
  <rect width="192" height="192" rx="32" fill="url(#grad)" />
  <g fill="#fff" stroke="#fff" stroke-width="6" stroke-linecap="round" stroke-linejoin="round">
    <path d="M58 96c0-18 14-32 32-32s32 14 32 32-14 32-32 32" fill="none" />
    <path d="M58 96c0 22 18 40 40 40" fill="none" opacity="0.5" />
    <path d="M46 76c-10 0-18 8-18 18 0 22 28 46 66 46 38 0 66-24 66-46 0-10-8-18-18-18" fill="none" />
    <circle cx="58" cy="70" r="10" />
    <circle cx="134" cy="70" r="10" />
  </g>
</svg>
